PathFileType	4	(X/Y/Z)	C:/Users/opensim2020/Desktop/walking_exp_matlab/subject03_walking11_straight_03.trc	
DataRate	CameraRate	NumFrames	NumMarkers	Units	OrigDataRate	OrigDataStartFrame	OrigNumFrames	
100.00	100.00	4	46	mm	100.00	2930	380	
Frame#	Time	LFHD			RFHD			LBHD			RBHD			C7			T10			CLAV			STRN			RBAK			LSHO			LUPA			LELB			LFRM			LWRA			LWRB			LFIN			RSHO			RUPA			RELB			RFRM			RWRA			RWRB			RFIN			LASI			RASI			LPSI			RPSI			LTHI			LKNE			LTIB			LANK			LHEE			LTOE			RTHI			RKNE			RTIB			RANK			RHEE			RTOE			*39			*40			*41			*42			*43			*44			*45			
		X1	Y1	Z1	X2	Y2	Z2	X3	Y3	Z3	X4	Y4	Z4	X5	Y5	Z5	X6	Y6	Z6	X7	Y7	Z7	X8	Y8	Z8	X9	Y9	Z9	X10	Y10	Z10	X11	Y11	Z11	X12	Y12	Z12	X13	Y13	Z13	X14	Y14	Z14	X15	Y15	Z15	X16	Y16	Z16	X17	Y17	Z17	X18	Y18	Z18	X19	Y19	Z19	X20	Y20	Z20	X21	Y21	Z21	X22	Y22	Z22	X23	Y23	Z23	X24	Y24	Z24	X25	Y25	Z25	X26	Y26	Z26	X27	Y27	Z27	X28	Y28	Z28	X29	Y29	Z29	X30	Y30	Z30	X31	Y31	Z31	X32	Y32	Z32	X33	Y33	Z33	X34	Y34	Z34	X35	Y35	Z35	X36	Y36	Z36	X37	Y37	Z37	X38	Y38	Z38	X39	Y39	Z39	X40	Y40	Z40	X41	Y41	Z41	X42	Y42	Z42	X43	Y43	Z43	X44	Y44	Z44	X45	Y45	Z45	X46	Y46	Z46	

191	1.900	1399.85779	220.69705	1634.91492	1532.77393	214.27290	1634.06689	1396.95190	102.49825	1569.94238	1528.16028	100.40948	1569.40137	1454.06799	84.36382	1423.01001	1455.88489	46.14137	1110.68103	1450.95825	204.15056	1343.72534	1441.69238	244.01295	1178.09216	1550.82996	29.98869	1249.12939	1296.44897	157.13586	1381.87854	1228.82495	146.99309	1184.39478	1218.32239	157.18790	1060.98511	1218.93689	189.14687	934.34802	1249.88574	214.04939	817.68225	1199.67554	189.31383	821.45007	1211.23816	206.41138	738.18542	1612.43494	164.72531	1365.90247	1685.98535	164.40491	1143.64319	1699.44507	180.04019	1031.74768	1700.63647	196.88385	895.35638	1663.38733	224.15941	800.05554	1709.40186	195.85330	795.08398	1697.59729	217.86397	723.89148	1330.45923	205.33334	940.86072	1569.03162	219.78511	949.35016	1389.58459	46.23587	961.80493	1537.93591	56.28624	979.36926	1276.76318	176.93549	639.08820	1291.21643	207.70731	461.90387	1304.89746	56.43249	336.76151	1354.88501	-89.98957	194.67018	1400.38757	-136.73456	201.01888	1361.20874	-24.81956	59.38576	1610.51294	175.57283	656.05029	1573.40894	199.78090	476.63354	1577.59680	167.16492	289.11234	1526.87585	158.07579	73.07352	1477.03882	113.92771	40.18045	1503.65735	300.72098	37.27498	1450.43225	126.60544	1679.26770																		 
192	1.910	1400.38342	228.21693	1635.05823	1533.26135	221.92233	1634.05286	1397.58411	110.01107	1570.00073	1528.75354	108.27679	1569.31067	1454.94385	91.80209	1423.26746	1456.77954	52.96960	1111.03931	1451.27722	211.35361	1343.83130	1441.94812	250.84415	1178.11633	1551.60706	37.22821	1249.58203	1296.80847	163.62126	1382.07056	1229.34473	151.51785	1184.41797	1219.02466	161.16995	1060.98230	1219.61035	192.17909	934.06226	1250.00171	216.08264	817.21112	1200.22693	191.02863	821.20526	1211.55774	207.58031	737.88586	1612.82178	172.61638	1366.14148	1686.77930	174.64812	1144.09412	1700.33508	191.46024	1032.39490	1702.16602	209.23154	896.18573	1665.10974	236.65157	800.88568	1711.57483	209.14175	795.99683	1700.16418	231.84505	725.16663	1331.13879	212.08080	941.64783	1569.69690	226.81648	949.58557	1390.57849	52.82547	962.14105	1538.73572	63.34594	979.29950	1277.73474	188.34030	640.15430	1291.60400	222.63870	463.72681	1305.27710	72.78168	336.92920	1354.92639	-72.64955	193.76582	1400.52002	-119.79457	198.66634	1361.07983	-4.31352	60.01720	1610.48291	181.74074	655.95172	1573.34705	204.23662	476.36758	1577.53333	169.94220	289.14285	1527.05127	158.64027	73.21095	1477.00195	113.94905	40.37166	1503.50244	300.83536	37.18071	1451.27454	134.06015	1679.35352																		 
193	1.920	1400.47925	235.72603	1635.47192	1533.72144	229.59952	1634.06067	1398.15503	117.49703	1570.17419	1529.35645	115.98592	1569.29944	1455.56738	99.02852	1423.56885	1457.60400	59.78615	1111.44861	1451.45361	218.50119	1343.91284	1442.20874	257.60596	1178.19287	1552.43066	44.55764	1250.03711	1297.19836	170.05916	1382.43945	1229.83179	156.07951	1184.71826	1219.62646	164.88225	1061.15381	1220.28516	194.84947	934.07300	1249.31763	218.87914	817.44690	1200.85791	192.80606	821.21997	1211.85071	209.00397	737.91266	1613.16443	180.41841	1366.46375	1687.42603	184.67290	1144.73535	1701.06384	203.03461	1033.35571	1703.65149	221.61797	897.31726	1666.86133	249.32059	801.99213	1713.69104	222.43625	797.19751	1702.70178	245.86311	726.57269	1331.86255	218.84065	942.56079	1570.29004	233.82115	949.71875	1391.48730	59.66392	962.51373	1539.66748	70.36328	979.23126	1278.79883	199.61351	641.35699	1292.21521	237.22760	465.45868	1305.74963	89.27401	336.67273	1355.09607	-54.64001	191.81908	1400.42224	-102.41564	195.11475	1361.37317	18.09138	60.70594	1610.62000	187.79124	655.83563	1573.19995	208.72940	476.11154	1577.39734	172.74121	289.08521	1526.79346	158.71439	73.30112	1476.99622	114.01357	40.57049	1503.35559	300.96292	37.11781	1452.05945	141.29332	1679.88940																		 
194	1.930	1401.25012	243.16164	1635.40100	1534.21545	237.32599	1634.04810	1398.74683	124.91684	1570.43713	1529.92578	123.46466	1569.41345	1456.27112	106.05672	1423.83569	1458.45972	66.61599	1111.77722	1451.58643	225.55688	1344.05090	1442.42456	264.24011	1178.25696	1553.23535	51.98590	1250.48267	1297.57947	176.49875	1382.90063	1230.27209	160.49619	1185.10144	1220.14661	168.56056	1061.53198	1220.89343	197.59695	934.27606	1252.70032	218.28607	816.35376	1201.41211	194.72813	821.46893	1212.17212	210.52568	738.14514	1613.47668	188.19809	1366.99109	1687.99585	194.58681	1145.49878	1701.74084	214.38768	1034.46313	1705.01636	234.07765	898.67126	1668.58142	262.05560	803.28131	1715.75562	235.83862	798.67822	1705.19983	259.92468	728.27496	1332.77454	225.68637	943.62238	1570.90015	240.81065	949.84845	1392.37781	66.46276	963.06519	1540.49060	77.49361	979.14465	1279.40186	211.38011	642.51807	1293.01758	251.65015	467.32593	1306.54517	106.46740	335.91095	1355.21826	-35.82485	188.77225	1400.07007	-84.47687	190.27521	1362.26123	41.85715	60.78283	1610.68286	193.84013	655.68683	1573.07605	213.13066	475.86414	1577.32544	175.41612	289.08554	1526.59094	159.02489	73.45454	1476.95703	114.04609	40.77542	1503.22461	301.04971	37.05345	1452.42676	149.34181	1679.88696																		 
